<svg xmlns="http://www.w3.org/2000/svg" width="512" height="512" viewBox="0 0 512 512" version="1.1"><path d="M 169.351 172.684 C 169.727 173.061, 168.565 174.973, 166.768 176.934 L 163.500 180.500 167.250 177.054 C 171.104 173.512, 171.877 172, 169.833 172 C 169.192 172, 168.975 172.308, 169.351 172.684 M 341 172.804 C 341 173.246, 342.688 175.158, 344.750 177.054 L 348.500 180.500 345.232 176.934 C 343.435 174.973, 342.273 173.061, 342.649 172.684 C 343.025 172.308, 342.808 172, 342.167 172 C 341.525 172, 341 172.362, 341 172.804 M 42.946 187.750 L 39.500 191.500 43.250 188.054 C 45.313 186.158, 47 184.471, 47 184.304 C 47 183.540, 46.154 184.260, 42.946 187.750 M 468 187.500 C 469.866 189.425, 471.617 191, 471.892 191 C 472.167 191, 470.866 189.425, 469 187.500 C 467.134 185.575, 465.383 184, 465.108 184 C 464.833 184, 466.134 185.575, 468 187.500 M 472.596 193.389 C 473.178 194.906, 464.754 212.343, 459.368 220.769 L 456 226.039 456 269.019 L 456 312 468.041 312 L 480.082 312 479.791 258.750 L 479.500 205.500 476.303 198.750 C 474.544 195.037, 472.871 192, 472.584 192 C 472.297 192, 472.303 192.625, 472.596 193.389 M 433.966 253.617 C 415.670 272.418, 388.261 290.521, 365.404 298.899 L 358.307 301.500 360.027 305.549 C 361.586 309.219, 362.235 309.711, 366.950 310.799 C 370.453 311.608, 383.232 312, 406.076 312 L 440 312 440 280 C 440 262.400, 439.872 248, 439.716 248 C 439.560 248, 436.972 250.528, 433.966 253.617 M 135.001 275.654 C 135 277.442, 120.024 286.623, 106.615 293.056 C 96.782 297.773, 85.974 301.826, 73.250 305.569 C 72.563 305.772, 72 307.301, 72 308.969 L 72 312 98.750 311.920 C 115.713 311.868, 127.123 311.411, 129.937 310.670 C 134.363 309.503, 134.384 309.475, 138.616 299.500 C 140.950 294, 142.890 289.050, 142.929 288.500 C 142.967 287.950, 141.199 284.575, 139 281 C 136.801 277.425, 135.001 275.019, 135.001 275.654 M 54 309.630 C 53.175 309.848, 49.125 310.413, 45 310.884 L 37.500 311.741 46.750 311.870 C 54.363 311.977, 56 311.735, 56 310.500 C 56 309.675, 55.888 309.052, 55.750 309.116 C 55.612 309.180, 54.825 309.411, 54 309.630" stroke="none" fill="#0f8876" fill-rule="evenodd"/><path d="M 114.195 33.045 C 104.741 34.954, 96.386 41.192, 92.088 49.551 C 88.735 56.073, 87.762 64.168, 88.185 82 C 88.632 100.837, 89.347 103.194, 98.892 117.340 L 104 124.910 104 136.258 C 104 146.417, 103.733 148.144, 101.451 152.722 C 100.049 155.535, 97.420 158.968, 95.609 160.349 C 93.798 161.731, 82.976 167.016, 71.560 172.094 C 54.530 179.669, 49.838 182.209, 45.426 186.242 C 39.092 192.030, 34.421 200.769, 32.993 209.500 C 32.448 212.831, 32.009 236.990, 32.006 263.811 L 32 312.121 39.250 311.424 C 43.237 311.041, 48.525 310.446, 51 310.101 L 55.500 309.476 55.760 262.738 L 56.020 216 64.010 216 L 72 216 72 260.929 L 72 305.859 78.675 303.950 C 88.774 301.062, 98.430 297.231, 109.500 291.719 C 120.509 286.238, 135 277.286, 135 275.967 C 135 275.504, 132.097 270.485, 128.549 264.813 L 122.097 254.500 137.049 239.488 L 152 224.477 152.012 215.488 C 152.031 200.907, 156.536 188.478, 165.490 178.302 C 170.771 172.300, 171.617 173.432, 157.066 167.029 C 145.305 161.853, 141.718 159.082, 138.549 152.722 C 136.267 148.144, 136 146.417, 136 136.258 L 136 124.910 141.108 117.340 C 150.510 103.406, 151.351 100.709, 151.818 82.978 C 152.476 58.001, 150.096 48.868, 140.733 40.449 C 133.799 34.216, 123.136 31.241, 114.195 33.045 M 386.195 33.045 C 376.741 34.954, 368.386 41.192, 364.088 49.551 C 360.735 56.073, 359.762 64.168, 360.185 82 C 360.632 100.837, 361.347 103.194, 370.892 117.340 L 376 124.910 376 136.258 C 376 146.417, 375.733 148.144, 373.451 152.722 C 370.282 159.082, 366.695 161.853, 354.934 167.029 C 340.383 173.432, 341.229 172.300, 346.510 178.302 C 349.025 181.161, 352.431 186.220, 354.078 189.545 C 359.075 199.631, 359.975 204.801, 359.988 223.476 L 360 240.453 366.925 247.476 L 373.850 254.500 363.496 271.349 L 353.143 288.198 355.753 294.349 C 357.188 297.732, 358.495 300.677, 358.657 300.893 C 359.222 301.645, 371.567 296.704, 381.500 291.750 C 400.077 282.486, 415.409 271.509, 431.250 256.132 L 440 247.638 440 231.819 L 440 216 448 216 L 456 216 456.022 220.750 L 456.044 225.500 457.994 223 C 462.119 217.711, 473.131 194.989, 472.514 193.043 C 472.176 191.979, 469.492 188.908, 466.548 186.218 C 462.167 182.214, 457.432 179.652, 440.440 172.094 C 429.024 167.016, 418.202 161.731, 416.391 160.349 C 414.580 158.968, 411.951 155.535, 410.549 152.722 C 408.267 148.144, 408 146.417, 408 136.258 L 408 124.910 413.108 117.340 C 422.510 103.406, 423.351 100.709, 423.818 82.978 C 424.476 58.001, 422.096 48.868, 412.733 40.449 C 405.799 34.216, 395.136 31.241, 386.195 33.045" stroke="none" fill="#12a08b" fill-rule="evenodd"/><path d="M 250.195 33.045 C 239.556 35.193, 229.721 43.529, 226.320 53.280 C 224.795 57.655, 224.500 61.736, 224.500 78.500 C 224.500 98.032, 224.562 98.632, 227.142 104.135 C 228.595 107.235, 232.083 113.177, 234.892 117.340 L 240 124.910 240 136.258 C 240 146.417, 239.733 148.144, 237.451 152.722 C 236.049 155.535, 233.420 158.968, 231.609 160.349 C 229.798 161.731, 218.976 167.016, 207.560 172.094 C 183.655 182.727, 178.254 186.676, 172.991 197.367 C 169.788 203.872, 167.649 214.210, 168.185 220.592 C 168.490 224.228, 168.885 224.586, 180.317 231.581 L 192.134 238.812 201.817 234.805 C 207.143 232.601, 212.002 230.280, 212.616 229.649 C 213.229 229.017, 215.674 220.288, 218.047 210.250 L 222.363 192 248 192 L 273.637 192 277.953 210.250 C 280.326 220.288, 282.771 229.017, 283.384 229.649 C 283.998 230.280, 288.845 232.595, 294.155 234.793 L 303.810 238.789 310.406 234.839 C 315.400 231.848, 318.023 229.384, 321.208 224.694 C 326.379 217.082, 337 196.644, 337 194.308 C 337 193.368, 334.413 190.088, 331.250 187.021 C 326.103 182.029, 323.308 180.470, 304.592 172.152 C 293.093 167.042, 282.202 161.731, 280.391 160.349 C 278.580 158.968, 275.951 155.535, 274.549 152.722 C 272.267 148.144, 272 146.417, 272 136.258 L 272 124.910 277.108 117.340 C 286.653 103.194, 287.368 100.837, 287.815 82 C 288.400 57.346, 286.153 48.919, 276.733 40.449 C 269.799 34.216, 259.136 31.241, 250.195 33.045" stroke="none" fill="#25bfa5" fill-rule="evenodd"/><path d="M 240 320 L 240 336 224 336 L 208 336 208 344 L 208 352 224 352 L 240 352 240 368 L 240 384 248 384 L 256 384 256 368 L 256 352 272 352 L 288 352 288 344 L 288 336 272 336 L 256 336 256 320 L 256 304 248 304 L 240 304 240 320" stroke="none" fill="#f7ac52" fill-rule="evenodd"/><path d="M 105.798 17.931 C 90.174 22.926, 78.746 34.368, 73.985 49.783 C 72.262 55.361, 72 59.090, 72 78 C 72 104.271, 72.853 107.988, 82.114 122.093 L 88.205 131.368 87.820 138.181 C 87.582 142.386, 86.873 145.555, 85.967 146.461 C 85.160 147.268, 75.725 151.820, 65 156.577 C 54.275 161.334, 43.130 166.799, 40.234 168.721 C 33.279 173.336, 25.601 182.062, 21.909 189.545 C 16.049 201.424, 16.025 201.711, 16.012 259.250 L 16 312 24 312 L 32 312 32 260.682 C 32 204.221, 31.982 204.410, 38.219 194.047 C 43.422 185.400, 49.286 181.446, 71.504 171.603 C 82.502 166.731, 92.952 161.662, 94.728 160.339 C 96.503 159.015, 99.202 155.810, 100.725 153.216 C 103.222 148.962, 103.529 147.391, 103.857 137.186 L 104.220 125.872 97.655 116.012 C 88.136 101.715, 87.786 100.233, 88.175 75.872 C 88.482 56.625, 88.635 55.225, 90.948 50.526 C 94.069 44.182, 100.182 38.069, 106.526 34.948 C 113.339 31.595, 126.209 31.466, 133.196 34.680 C 139.192 37.438, 145.921 44.163, 149.052 50.526 C 151.365 55.225, 151.518 56.625, 151.825 75.872 C 152.214 100.233, 151.864 101.715, 142.345 116.012 L 135.780 125.872 136.143 137.186 C 136.471 147.391, 136.778 148.962, 139.275 153.216 C 142.898 159.385, 146.247 161.760, 159.500 167.554 C 165.550 170.198, 170.672 172.490, 170.882 172.647 C 171.092 172.803, 169.067 175.338, 166.382 178.281 C 157.099 188.454, 152 202.155, 152 216.923 L 152 224.526 137.500 239 C 129.525 246.961, 123 253.798, 123 254.194 C 123 254.590, 127.273 261.867, 132.496 270.365 C 137.719 278.863, 142.235 286.448, 142.531 287.221 C 142.828 287.993, 141.112 293.322, 138.717 299.063 L 134.365 309.500 129.432 310.635 C 126.720 311.259, 118.088 313.252, 110.250 315.063 L 96 318.357 96 343.997 L 96 369.638 114.250 373.935 C 124.287 376.298, 133.026 378.742, 133.670 379.366 C 134.313 379.990, 136.653 384.885, 138.869 390.244 L 142.899 399.989 133.160 415.744 C 127.804 424.410, 123.127 431.979, 122.766 432.565 C 122.405 433.152, 130.291 441.773, 140.305 451.742 L 158.500 469.853 175.309 459.499 L 192.119 449.146 201.809 453.153 C 207.139 455.357, 212.002 457.687, 212.616 458.330 C 213.229 458.974, 215.674 467.712, 218.047 477.750 L 222.363 496 248 496 L 273.637 496 277.953 477.750 C 280.326 467.712, 282.771 458.983, 283.384 458.351 C 283.998 457.720, 288.859 455.399, 294.186 453.194 L 303.872 449.185 320.797 459.491 L 337.723 469.797 355.788 451.649 L 373.853 433.500 363.510 416.708 L 353.167 399.915 357.185 390.208 C 359.395 384.868, 361.720 379.998, 362.351 379.384 C 362.983 378.771, 371.713 376.326, 381.750 373.953 L 400 369.637 400 344.018 L 400 318.400 385.750 315.047 C 377.913 313.202, 369.273 311.177, 366.551 310.547 L 361.603 309.401 357.372 299.451 C 355.045 293.978, 353.109 289.025, 353.071 288.445 C 353.032 287.865, 357.500 280.082, 363 271.149 C 368.500 262.215, 373 254.577, 373 254.174 C 373 253.772, 370.075 250.543, 366.500 247 L 360 240.558 359.983 225.529 C 359.955 201.906, 356.387 190.055, 345.818 178.491 C 343.023 175.433, 340.908 172.803, 341.118 172.647 C 341.328 172.490, 346.450 170.198, 352.500 167.554 C 365.753 161.760, 369.102 159.385, 372.725 153.216 C 375.222 148.962, 375.529 147.391, 375.857 137.186 L 376.220 125.872 369.655 116.012 C 360.136 101.715, 359.786 100.233, 360.175 75.872 C 360.482 56.625, 360.635 55.225, 362.948 50.526 C 366.069 44.182, 372.182 38.069, 378.526 34.948 C 385.339 31.595, 398.209 31.466, 405.196 34.680 C 411.192 37.438, 417.921 44.163, 421.052 50.526 C 423.365 55.225, 423.518 56.625, 423.825 75.872 C 424.214 100.233, 423.864 101.715, 414.345 116.012 L 407.780 125.872 408.143 137.186 C 408.471 147.391, 408.778 148.962, 411.275 153.216 C 412.798 155.810, 415.497 159.015, 417.272 160.339 C 419.048 161.662, 429.453 166.711, 440.396 171.559 C 466.099 182.945, 470.542 186.381, 476.782 199.700 L 479.500 205.500 479.791 258.750 L 480.082 312 488.041 312 L 496 312 496 259.105 C 496 208.252, 495.919 205.946, 493.904 199.355 C 490 186.585, 481.976 175.498, 471.705 168.680 C 468.807 166.757, 457.676 161.296, 446.968 156.544 C 436.261 151.793, 426.840 147.251, 426.033 146.450 C 425.125 145.549, 424.418 142.393, 424.180 138.181 L 423.795 131.368 429.886 122.093 C 439.147 107.988, 440 104.271, 440 78 C 440 59.090, 439.738 55.361, 438.015 49.783 C 435.862 42.812, 429.986 33.074, 425.386 28.851 C 409.029 13.837, 383.929 11.743, 365.428 23.849 C 355.672 30.233, 349.465 38.526, 345.964 49.855 C 344.267 55.348, 344 59.167, 344 78 C 344 104.211, 344.865 108.006, 354.012 121.937 C 359.467 130.244, 360 131.538, 360 136.463 C 360 146.780, 360.054 146.737, 332.214 158.706 L 323.929 162.268 307.461 154.983 C 298.404 150.976, 290.444 147.036, 289.773 146.226 C 289.101 145.417, 288.381 141.743, 288.173 138.061 L 287.795 131.368 293.886 122.093 C 303.147 107.988, 304 104.271, 304 78 C 304 59.167, 303.733 55.348, 302.036 49.855 C 298.535 38.526, 292.328 30.233, 282.572 23.849 C 264.071 11.743, 238.971 13.837, 222.614 28.851 C 218.014 33.074, 212.138 42.812, 209.985 49.783 C 208.262 55.361, 208 59.090, 208 78 C 208 104.211, 208.865 108.006, 218.012 121.937 C 223.467 130.244, 224 131.538, 224 136.463 C 224 146.780, 224.054 146.737, 196.214 158.706 L 187.929 162.268 171.461 154.983 C 162.404 150.976, 154.444 147.036, 153.773 146.226 C 153.101 145.417, 152.381 141.743, 152.173 138.061 L 151.795 131.368 157.886 122.093 C 167.147 107.988, 168 104.271, 168 78 C 168 59.090, 167.738 55.361, 166.015 49.783 C 159.643 29.153, 141.437 15.910, 119.645 16.054 C 114.656 16.087, 109.291 16.814, 105.798 17.931 M 245.404 33.766 C 235.907 37.162, 228.277 45.106, 225.431 54.562 C 223.461 61.107, 223.426 94.775, 225.382 101.276 C 226.143 103.802, 229.743 110.414, 233.382 115.969 L 240 126.069 240 135.356 C 240 153.598, 236.752 158.122, 217.304 166.978 C 188.655 180.023, 185.099 181.868, 180.580 186.033 C 177.710 188.679, 174.571 193.112, 172.265 197.779 C 168.918 204.550, 168.522 206.213, 168.170 214.967 L 167.781 224.659 179.881 231.969 L 191.980 239.279 196.740 237.473 C 199.358 236.480, 204.264 234.433, 207.643 232.924 L 213.785 230.180 217.431 214.840 C 219.436 206.403, 221.527 197.813, 222.077 195.750 L 223.077 192 248 192 L 272.923 192 273.923 195.750 C 274.473 197.813, 276.565 206.409, 278.572 214.854 L 282.222 230.208 287.361 232.442 C 290.187 233.671, 295.071 235.726, 298.214 237.008 L 303.928 239.338 318.714 230.336 C 326.846 225.385, 334.497 220.710, 335.716 219.947 C 337.733 218.686, 338.215 218.828, 341.076 221.531 L 344.219 224.500 343.818 214.865 C 343.458 206.196, 343.047 204.480, 339.724 197.756 C 333.449 185.059, 330.467 183.025, 294.531 166.924 C 275.782 158.524, 272 153.229, 272 135.378 L 272 126.113 278.958 115.424 C 283.517 108.420, 286.307 102.970, 287.049 99.617 C 287.755 96.430, 288.054 87.145, 287.841 75 C 287.535 57.528, 287.274 55.012, 285.330 50.804 C 282.524 44.731, 275.151 37.398, 269.196 34.758 C 262.637 31.850, 252.003 31.407, 245.404 33.766 M 231.550 224.250 C 229.459 233.188, 227.242 241.020, 226.624 241.655 C 226.006 242.291, 217.676 246.040, 208.113 249.988 L 190.726 257.165 175.693 248.010 L 160.659 238.855 151.757 247.757 L 142.855 256.659 151.989 271.658 L 161.123 286.657 153.971 304.078 C 150.037 313.660, 146.297 322.014, 145.660 322.642 C 145.022 323.270, 137.188 325.489, 128.250 327.572 L 112 331.359 112 344 L 112 356.641 128.250 360.428 C 137.188 362.511, 145.022 364.730, 145.660 365.358 C 146.297 365.986, 150.037 374.340, 153.971 383.922 L 161.123 401.343 151.989 416.342 L 142.855 431.341 151.757 440.243 L 160.659 449.145 175.693 439.990 L 190.726 430.835 208.113 438.029 C 217.676 441.985, 225.984 445.612, 226.575 446.088 C 227.166 446.564, 229.386 454.389, 231.510 463.477 L 235.370 480 248 480 L 260.630 480 264.490 463.477 C 266.614 454.389, 268.834 446.564, 269.425 446.088 C 270.498 445.224, 304.410 431, 305.397 431 C 305.684 431, 312.546 435.075, 320.646 440.056 L 335.374 449.113 344.273 440.214 L 353.171 431.315 343.971 416.453 L 334.771 401.592 340.470 387.546 C 343.605 379.821, 347.144 371.475, 348.335 369.001 L 350.500 364.502 367.250 360.567 L 384 356.632 384 344.004 L 384 331.377 367.750 327.554 C 358.813 325.452, 350.978 323.230, 350.340 322.616 C 349.703 322.002, 345.963 313.660, 342.029 304.078 L 334.877 286.657 344.011 271.658 L 353.145 256.659 344.262 247.776 L 335.379 238.893 320.369 248.005 L 305.360 257.118 287.930 249.954 C 278.343 246.014, 269.994 242.275, 269.376 241.645 C 268.758 241.015, 266.541 233.188, 264.450 224.250 L 260.646 208 248 208 L 235.354 208 231.550 224.250 M 56 264 L 56 312 64 312 L 72 312 72 264 L 72 216 64 216 L 56 216 56 264 M 440 264 L 440 312 448 312 L 456 312 456 264 L 456 216 448 216 L 440 216 440 264 M 236.500 256.695 C 230.522 257.484, 218.369 260.944, 212.575 263.508 C 164.397 284.825, 145.636 343.888, 172.635 389.246 C 179.057 400.036, 191.964 412.943, 202.754 419.365 C 232.530 437.090, 269.793 435.780, 298.400 416.004 C 315.574 404.132, 327.825 386.191, 333.568 364.500 C 336.325 354.088, 336.182 333.226, 333.279 322.500 C 324.067 288.463, 297.138 263.394, 263.483 257.525 C 255.382 256.112, 243.654 255.752, 236.500 256.695 M 241 272.682 C 221.190 275.155, 202.641 285.459, 191.478 300.191 C 181.674 313.130, 176.706 327.903, 176.744 344 C 176.838 383.848, 207.734 414.947, 247.500 415.221 C 259.753 415.305, 268.680 413.296, 279.500 408.018 C 294.351 400.774, 305.693 389.244, 312.650 374.319 C 317.361 364.211, 319.248 355.304, 319.178 343.500 C 318.952 305.105, 290.421 275.260, 251.500 272.705 C 247.650 272.452, 242.925 272.442, 241 272.682 M 224 304 L 224 320 208 320 L 192 320 192 344 L 192 368 208 368 L 224 368 224 384 L 224 400 248 400 L 272 400 272 384 L 272 368 288 368 L 304 368 304 344 L 304 320 288 320 L 272 320 272 304 L 272 288 248 288 L 224 288 224 304 M 240 320 L 240 336 224 336 L 208 336 208 344 L 208 352 224 352 L 240 352 240 368 L 240 384 248 384 L 256 384 256 368 L 256 352 272 352 L 288 352 288 344 L 288 336 272 336 L 256 336 256 320 L 256 304 248 304 L 240 304 240 320 M 28 336.159 C 25.525 336.678, 22.966 337.280, 22.314 337.496 C 21.464 337.777, 21.966 341.083, 24.087 349.167 C 25.715 355.371, 27.438 360.838, 27.916 361.316 C 28.408 361.808, 31.880 361.188, 35.920 359.886 C 41.466 358.100, 42.920 357.244, 42.444 356.044 C 42.107 355.195, 40.674 350.113, 39.258 344.750 C 36.406 333.943, 36.870 334.297, 28 336.159 M 473.460 342.250 C 468.440 362.990, 456.058 391.458, 444.077 409.807 C 440.735 414.926, 438 419.248, 438 419.412 C 438 419.861, 449.732 428, 450.378 428 C 452.444 428, 468.731 400.282, 474.853 386.348 C 483.194 367.366, 492.044 338.239, 489.686 337.533 C 486.157 336.476, 478.859 335, 477.165 335 C 475.573 335, 474.894 336.330, 473.460 342.250 M 41.500 376.018 C 35.965 378.226, 34.572 379.197, 34.845 380.655 C 35.466 383.978, 45.136 403, 46.204 403 C 47.622 403, 59 396.696, 59 395.911 C 59 395.566, 56.638 390.320, 53.750 384.254 L 48.500 373.225 41.500 376.018 M 62.264 416.129 L 56.029 420.240 57.764 423.209 C 61.508 429.614, 76.851 448.003, 86.424 457.557 C 98.416 469.526, 111.806 480.382, 125.519 489.255 C 135.183 495.508, 147.904 502.466, 148.483 501.815 C 148.637 501.642, 150.223 498.589, 152.007 495.030 C 154.618 489.823, 154.982 488.401, 153.875 487.743 C 153.119 487.293, 147.768 484.129, 141.984 480.712 C 136.200 477.296, 126.975 471.156, 121.484 467.069 C 108.536 457.431, 84.318 433.060, 76 421.298 C 72.425 416.243, 69.275 412.087, 69 412.062 C 68.725 412.038, 65.694 413.868, 62.264 416.129 M 413.752 446.807 L 402.149 458.500 407.465 464.383 L 412.781 470.266 425.028 458.094 L 437.275 445.922 434.888 443.361 C 433.574 441.953, 430.892 439.521, 428.928 437.957 L 425.356 435.114 413.752 446.807 M 370 480.608 C 364.225 484.109, 358.890 487.324, 358.145 487.754 C 357.069 488.374, 357.473 489.922, 360.109 495.268 C 361.935 498.970, 363.806 502, 364.267 502 C 365.528 502, 384.264 491.162, 387.594 488.507 L 390.500 486.189 386.500 480.412 C 384.300 477.235, 382.050 474.548, 381.500 474.440 C 380.950 474.332, 375.775 477.108, 370 480.608" stroke="none" fill="#000000" fill-rule="evenodd"/><path d="M 231.550 224.250 C 229.459 233.188, 227.242 241.020, 226.624 241.655 C 226.006 242.291, 217.676 246.040, 208.113 249.988 L 190.726 257.165 175.693 248.010 L 160.659 238.855 151.757 247.757 L 142.855 256.659 151.989 271.658 L 161.123 286.657 153.971 304.078 C 150.037 313.660, 146.297 322.014, 145.660 322.642 C 145.022 323.270, 137.188 325.489, 128.250 327.572 L 112 331.359 112 344 L 112 356.641 128.250 360.428 C 137.188 362.511, 145.022 364.730, 145.660 365.358 C 146.297 365.986, 150.037 374.340, 153.971 383.922 L 161.123 401.343 151.989 416.342 L 142.855 431.341 151.757 440.243 L 160.659 449.145 175.693 439.990 L 190.726 430.835 208.113 438.029 C 217.676 441.985, 225.984 445.612, 226.575 446.088 C 227.166 446.564, 229.386 454.389, 231.510 463.477 L 235.370 480 248 480 L 260.630 480 264.490 463.477 C 266.614 454.389, 268.834 446.564, 269.425 446.088 C 270.498 445.224, 304.410 431, 305.397 431 C 305.684 431, 312.546 435.075, 320.646 440.056 L 335.374 449.113 344.273 440.214 L 353.171 431.315 343.971 416.453 L 334.771 401.592 340.470 387.546 C 343.605 379.821, 347.144 371.475, 348.335 369.001 L 350.500 364.502 367.250 360.567 L 384 356.632 384 344.004 L 384 331.377 367.750 327.554 C 358.813 325.452, 350.978 323.230, 350.340 322.616 C 349.703 322.002, 345.963 313.660, 342.029 304.078 L 334.877 286.657 344.011 271.658 L 353.145 256.659 344.262 247.776 L 335.379 238.893 320.369 248.005 L 305.360 257.118 287.930 249.954 C 278.343 246.014, 269.994 242.275, 269.376 241.645 C 268.758 241.015, 266.541 233.188, 264.450 224.250 L 260.646 208 248 208 L 235.354 208 231.550 224.250 M 236.500 256.695 C 230.522 257.484, 218.369 260.944, 212.575 263.508 C 164.397 284.825, 145.636 343.888, 172.635 389.246 C 179.057 400.036, 191.964 412.943, 202.754 419.365 C 232.530 437.090, 269.793 435.780, 298.400 416.004 C 315.574 404.132, 327.825 386.191, 333.568 364.500 C 336.325 354.088, 336.182 333.226, 333.279 322.500 C 324.067 288.463, 297.138 263.394, 263.483 257.525 C 255.382 256.112, 243.654 255.752, 236.500 256.695 M 448.250 427.519 C 449.972 429.398, 450.028 429.398, 451.750 427.519 C 453.417 425.700, 453.417 425.672, 451.750 426.927 C 450.302 428.017, 449.698 428.017, 448.250 426.927 C 446.583 425.672, 446.583 425.700, 448.250 427.519 M 420.958 438.750 L 416.500 443.500 421.037 439.251 C 425.405 435.160, 425.645 435.067, 427.503 436.751 C 429.403 438.473, 429.404 438.465, 427.562 436.250 C 426.532 435.012, 425.628 434, 425.553 434 C 425.478 434, 423.410 436.137, 420.958 438.750 M 90.500 439 C 92.648 441.200, 94.631 443, 94.906 443 C 95.181 443, 93.648 441.200, 91.500 439 C 89.352 436.800, 87.369 435, 87.094 435 C 86.819 435, 88.352 436.800, 90.500 439 M 434.300 442.791 L 436.974 445.582 434.737 448.015 L 432.500 450.448 435.261 448.040 L 438.021 445.632 435.323 442.816 C 433.840 441.267, 432.401 440, 432.126 440 C 431.851 440, 432.829 441.256, 434.300 442.791 M 73 444.313 C 73 444.485, 74.463 445.948, 76.250 447.563 L 79.500 450.500 76.563 447.250 C 73.825 444.221, 73 443.540, 73 444.313 M 103.958 452.250 C 106.410 454.863, 108.548 457, 108.708 457 C 109.459 457, 108.665 456.102, 104.250 451.958 L 99.500 447.500 103.958 452.250 M 406.453 453.250 L 402.500 457.500 406.750 453.547 C 410.702 449.871, 411.460 449, 410.703 449 C 410.540 449, 408.627 450.913, 406.453 453.250 M 83 455.313 C 83 455.485, 84.463 456.948, 86.250 458.563 L 89.500 461.500 86.563 458.250 C 83.825 455.221, 83 454.540, 83 455.313 M 425.437 458.250 L 422.500 461.500 425.750 458.563 C 428.779 455.825, 429.460 455, 428.687 455 C 428.515 455, 427.052 456.462, 425.437 458.250 M 94 465.313 C 94 465.485, 95.463 466.948, 97.250 468.563 L 100.500 471.500 97.563 468.250 C 94.825 465.221, 94 464.540, 94 465.313 M 154.394 487.721 C 154.772 488.392, 154.377 490.304, 153.515 491.971 C 152.654 493.637, 152.174 495, 152.449 495 C 152.724 495, 153.673 493.598, 154.559 491.885 C 155.830 489.429, 155.910 488.530, 154.938 487.635 C 154.011 486.781, 153.877 486.802, 154.394 487.721" stroke="none" fill="#846fc1" fill-rule="evenodd"/><path d="M 332.344 204.893 C 329.509 210.727, 324.920 218.966, 322.146 223.202 L 317.104 230.903 327.405 224.536 L 337.707 218.168 340.853 221.315 L 344 224.462 344 219.414 C 344 212.142, 342.152 203.207, 339.659 198.427 L 337.500 194.286 332.344 204.893" stroke="none" fill="#1ea090" fill-rule="evenodd"/></svg>